<svg width="100%" height="100%" viewBox="0 0 246 81" fill="none" xmlns="http://www.w3.org/2000/svg">
<path d="M4.46875 61V22.0938C4.46875 21.2812 4.76042 20.5938 5.34375 20.0312C5.92708 19.4688 6.625 19.1875 7.4375 19.1875H43.4688C44.2812 19.1875 44.9688 19.4792 45.5312 20.0625C46.1146 20.6458 46.4062 21.3438 46.4062 22.1562V25.0938C46.4062 25.9062 46.1146 26.6042 45.5312 27.1875C44.9688 27.75 44.2812 28.0312 43.4688 28.0312H16.25V39.0312H38.4062C39.2188 39.0312 39.9062 39.3229 40.4688 39.9062C41.0521 40.4896 41.3438 41.1771 41.3438 41.9688V44.9375C41.3438 45.75 41.0521 46.4479 40.4688 47.0312C39.9062 47.5938 39.2188 47.875 38.4062 47.875H16.25V61C16.25 61.8542 15.9583 62.5729 15.375 63.1562C14.8125 63.7188 14.125 64 13.3125 64H7.4375C6.625 64 5.92708 63.7188 5.34375 63.1562C4.76042 62.5729 4.46875 61.8542 4.46875 61ZM51.2188 61.75C48.4688 59.8333 47.0938 57.125 47.0938 53.625C47.0938 50.125 48.4688 47.4375 51.2188 45.5625C53.9896 43.6875 57.5521 42.75 61.9062 42.75H72.25C72.25 40.3125 71.7396 38.6146 70.7188 37.6562C69.6979 36.6979 67.9062 36.2188 65.3438 36.2188C62.8021 36.2188 61.0104 36.8542 59.9688 38.125C58.9479 39.375 57.6875 40 56.1875 40H51.5312C50.9688 40 50.5 39.8229 50.125 39.4688C49.7708 39.0938 49.5938 38.6354 49.5938 38.0938C49.5938 32.1146 55.2708 29.125 66.625 29.125C71.5833 29.125 75.5625 30.2396 78.5625 32.4688C81.5625 34.6771 83.0625 38.1042 83.0625 42.75V62.0938C83.0625 62.6562 82.8854 63.1146 82.5312 63.4688C82.1771 63.8229 81.7188 64 81.1562 64H75.125C74.5625 64 74.1042 63.8229 73.75 63.4688C73.3958 63.0938 73.2188 62.6354 73.2188 62.0938V61.125C69.9271 63.4792 66.125 64.6458 61.8125 64.625C57.5208 64.625 53.9896 63.6667 51.2188 61.75ZM62.6562 49.8438C61.1979 49.8438 60.0417 50.1979 59.1875 50.9062C58.3542 51.6146 57.9375 52.5312 57.9375 53.6562C57.9375 54.7812 58.375 55.7083 59.25 56.4375C60.125 57.1667 61.3646 57.5312 62.9688 57.5312C66.1771 57.5312 69.2708 56.5938 72.25 54.7188V49.8438H62.6562ZM88.5312 35.4062V31.6875C88.5312 31.125 88.7083 30.6667 89.0625 30.3125C89.4375 29.9375 89.9062 29.75 90.4688 29.75H118.938C119.5 29.75 119.958 29.9375 120.312 30.3125C120.667 30.6667 120.844 31.125 120.844 31.6875V34.6875C120.844 36.2292 120.104 37.7396 118.625 39.2188L101.594 56.4375H119.188C119.75 56.4375 120.208 56.625 120.562 57C120.938 57.3542 121.125 57.8125 121.125 58.375V62.0938C121.125 62.6354 120.938 63.0938 120.562 63.4688C120.208 63.8229 119.75 64 119.188 64H90.4688C89.9062 64 89.4375 63.8229 89.0625 63.4688C88.7083 63.0938 88.5312 62.6354 88.5312 62.0938V59.0625C88.5312 57.5417 89.2812 56.0312 90.7812 54.5312L107.219 37.3125H90.4688C89.9062 37.3125 89.4375 37.1354 89.0625 36.7812C88.7083 36.4062 88.5312 35.9479 88.5312 35.4062ZM129.531 60.125C126.281 57.125 124.656 52.7083 124.656 46.875C124.656 41.0208 126.281 36.6042 129.531 33.625C132.781 30.625 137.448 29.125 143.531 29.125C149.635 29.125 154.312 30.625 157.562 33.625C160.812 36.6042 162.438 41.0208 162.438 46.875C162.438 52.7083 160.812 57.125 157.562 60.125C154.312 63.125 149.635 64.625 143.531 64.625C137.448 64.625 132.781 63.125 129.531 60.125ZM137.438 38.75C136.146 40.4375 135.5 43.1354 135.5 46.8438C135.5 50.5521 136.146 53.2604 137.438 54.9688C138.729 56.6771 140.76 57.5312 143.531 57.5312C146.323 57.5312 148.365 56.6771 149.656 54.9688C150.969 53.2604 151.625 50.5521 151.625 46.8438C151.625 43.1354 150.969 40.4375 149.656 38.75C148.365 37.0625 146.323 36.2188 143.531 36.2188C140.76 36.2188 138.729 37.0625 137.438 38.75Z" fill="#6B1EFF"/>
<circle cx="196.046" cy="23.8364" r="3.83642" fill="#6B1EFF"/>
<circle cx="178.946" cy="30.675" r="3.83642" transform="rotate(-45 178.946 30.675)" fill="#6B1EFF"/>
<circle cx="171.836" cy="47.9046" r="3.83642" transform="rotate(-90 171.836 47.9046)" fill="#6B1EFF"/>
<circle cx="178.94" cy="65.1433" r="3.83642" transform="rotate(-135 178.94 65.1433)" fill="#6B1EFF"/>
<circle cx="196.037" cy="72.1636" r="3.83642" transform="rotate(-180 196.037 72.1636)" fill="#6B1EFF"/>
<circle cx="213.143" cy="65.0175" r="3.83642" transform="rotate(135 213.143 65.0175)" fill="#6B1EFF"/>
<circle cx="220.164" cy="47.9134" r="3.83642" transform="rotate(90 220.164 47.9134)" fill="#6B1EFF"/>
<circle cx="213.084" cy="30.6814" r="3.83642" transform="rotate(45 213.084 30.6814)" fill="#6B1EFF"/>
<path d="M212.306 55.8795C212.511 55.98 212.597 56.2279 212.492 56.4306C210.732 59.8293 207.961 62.5995 204.563 64.3595C204.36 64.4645 204.112 64.3793 204.012 64.1743L198.957 53.8564C198.857 53.6514 198.942 53.405 199.14 53.2911C200.089 52.7449 200.877 51.9571 201.423 51.008C201.537 50.8101 201.784 50.7245 201.989 50.8249L212.306 55.8795Z" fill="#6B1EFF"/>
<path d="M201.911 65.0445C201.985 65.2605 201.87 65.496 201.652 65.5651C198.004 66.7238 194.087 66.7238 190.439 65.5651C190.221 65.496 190.106 65.2605 190.18 65.0445L193.902 54.1745C193.976 53.9585 194.211 53.8448 194.431 53.9042C195.488 54.1891 196.603 54.1891 197.66 53.9042C197.88 53.8448 198.115 53.9585 198.189 54.1745L201.911 65.0445Z" fill="#6B1EFF"/>
<path d="M188.079 64.1743C187.979 64.3793 187.731 64.4645 187.528 64.3595C184.13 62.5994 181.36 59.8293 179.6 56.4306C179.495 56.2279 179.58 55.98 179.785 55.8795L190.103 50.8249C190.308 50.7245 190.554 50.8101 190.668 51.008C191.214 51.9571 192.002 52.7449 192.951 53.2911C193.149 53.405 193.235 53.6514 193.134 53.8564L188.079 64.1743Z" fill="#6B1EFF"/>
<path d="M178.915 53.7787C178.699 53.8527 178.463 53.7376 178.394 53.52C177.235 49.8723 177.235 45.9547 178.394 42.3069C178.463 42.0893 178.699 41.9742 178.915 42.0482L189.785 45.7698C190.001 45.8438 190.114 46.0786 190.055 46.299C189.77 47.3564 189.77 48.4705 190.055 49.5279C190.114 49.7483 190.001 49.9831 189.785 50.0571L178.915 53.7787Z" fill="#6B1EFF"/>
<path d="M179.785 39.9474C179.58 39.8469 179.495 39.599 179.6 39.3963C181.36 35.9976 184.13 33.2275 187.528 31.4674C187.731 31.3624 187.979 31.4476 188.079 31.6526L193.134 41.9705C193.235 42.1755 193.149 42.422 192.951 42.5358C192.002 43.082 191.214 43.8698 190.668 44.8189C190.554 45.0168 190.308 45.1025 190.103 45.002L179.785 39.9474Z" fill="#6B1EFF"/>
<path d="M190.18 30.7824C190.106 30.5664 190.221 30.3309 190.439 30.2618C194.087 29.1031 198.004 29.1031 201.652 30.2618C201.87 30.3309 201.985 30.5664 201.911 30.7824L198.189 41.6524C198.115 41.8684 197.88 41.9822 197.66 41.9227C196.603 41.6378 195.488 41.6378 194.431 41.9227C194.211 41.9822 193.976 41.8684 193.902 41.6524L190.18 30.7824Z" fill="#6B1EFF"/>
<path d="M204.012 31.6526C204.112 31.4476 204.36 31.3624 204.563 31.4674C207.961 33.2275 210.732 35.9976 212.492 39.3963C212.597 39.599 212.511 39.8469 212.306 39.9474L201.989 45.002C201.784 45.1025 201.537 45.0168 201.423 44.8189C200.877 43.8698 200.089 43.082 199.14 42.5358C198.942 42.422 198.857 42.1755 198.957 41.9705L204.012 31.6526Z" fill="#6B1EFF"/>
<path d="M213.177 42.0482C213.393 41.9742 213.628 42.0893 213.697 42.3069C214.856 45.9546 214.856 49.8723 213.697 53.52C213.628 53.7376 213.393 53.8527 213.177 53.7787L202.307 50.0571C202.091 49.9831 201.977 49.7483 202.036 49.5279C202.321 48.4705 202.321 47.3564 202.036 46.299C201.977 46.0786 202.091 45.8438 202.307 45.7698L213.177 42.0482Z" fill="#6B1EFF"/>
<path d="M230.844 62.0938V21.125C230.844 20.5625 231.021 20.1042 231.375 19.75C231.75 19.375 232.208 19.1875 232.75 19.1875H239.75C240.292 19.1875 240.74 19.375 241.094 19.75C241.469 20.1042 241.656 20.5625 241.656 21.125V62.0938C241.656 62.6354 241.469 63.0938 241.094 63.4688C240.74 63.8229 240.292 64 239.75 64H232.75C232.208 64 231.75 63.8229 231.375 63.4688C231.021 63.0938 230.844 62.6354 230.844 62.0938Z" fill="#6B1EFF"/>
</svg>
