<svg width="100%" height="100%" viewBox="0 0 50 50" fill="none" xmlns="http://www.w3.org/2000/svg">
<path d="M49.0057 19.1763C48.3426 18.5133 47.5373 18.182 46.5906 18.182H31.8178V3.40876C31.8178 2.4621 31.4862 1.65699 30.8235 0.994045C30.1607 0.331597 29.3562 0 28.4081 0H21.5906C20.6438 0 19.8389 0.331224 19.1759 0.994169C18.513 1.65711 18.1816 2.46223 18.1816 3.40888V18.1821H3.40888C2.46223 18.1821 1.65711 18.5135 0.994169 19.1764C0.331224 19.8394 0 20.6437 0 21.591V28.4094C0 29.3569 0.3311 30.1614 0.994045 30.8237C1.65699 31.4869 2.4621 31.818 3.40876 31.818H18.1815V46.5915C18.1815 47.5381 18.5128 48.3439 19.1758 49.0066C19.8387 49.6689 20.6437 50 21.5905 50H28.4085C29.3559 50 30.1605 49.6689 30.8236 49.0066C31.4868 48.3435 31.8179 47.5381 31.8179 46.5915V31.818H46.5905C47.538 31.818 48.3429 31.4869 49.0056 30.8237C49.6684 30.1614 49.9999 29.3569 49.9999 28.4094V21.591C49.9996 20.6437 49.6689 19.8389 49.0057 19.1763Z" fill="black"/>
</svg>
