<svg width="100%" height="100%" viewBox="0 0 33 33" fill="currentColor" xmlns="http://www.w3.org/2000/svg">
<path d="M31.099 18.8996L30.4328 18.5413C29.6399 18.1158 29.1662 17.3521 29.1662 16.5C29.1662 15.6479 29.6399 14.8842 30.4328 14.4587L31.099 14.1004C32.9177 13.1222 33.5396 10.9631 32.4896 9.27064L31.2231 7.22936C30.1756 5.54046 27.8464 4.96061 26.0327 5.93529L25.3665 6.29239C24.5737 6.71904 23.625 6.71904 22.8334 6.29239C22.0406 5.86575 21.5669 5.10321 21.5669 4.25111V3.53571C21.5669 1.58636 19.8621 0 17.7672 0H15.2341C13.1392 0 11.4344 1.58636 11.4344 3.53571V4.25229C11.4344 5.10439 10.9607 5.86693 10.1678 6.29357C9.37498 6.71904 8.4276 6.72021 7.63473 6.29357L6.96852 5.93529C5.15482 4.96061 2.82562 5.54046 1.77691 7.22936L0.510351 9.27064C-0.539625 10.9631 0.0822547 13.1234 1.90103 14.1004L2.56851 14.4587C3.36137 14.8842 3.83506 15.6479 3.83506 16.5C3.83506 17.3521 3.36137 18.1158 2.56851 18.5413L1.9023 18.8996C0.0835212 19.8766 -0.538358 22.0369 0.511617 23.7294L1.77817 25.7706C2.82688 27.4595 5.15608 28.0394 6.96852 27.0647L7.63473 26.7076C8.4276 26.2798 9.37498 26.2821 10.1678 26.7076C10.9607 27.1343 11.4344 27.8968 11.4344 28.7489V29.4643C11.4344 31.4136 13.1392 33 15.2341 33H17.7672C19.8621 33 21.5669 31.4136 21.5669 29.4643V28.7477C21.5669 27.8956 22.0406 27.1331 22.8334 26.7064C23.625 26.281 24.5737 26.2798 25.3665 26.7064L26.0327 27.0647C27.8464 28.0382 30.1756 27.4584 31.2231 25.7706L32.4896 23.7294C33.5396 22.0369 32.9177 19.8766 31.099 18.8996ZM16.5006 22.3929C13.0087 22.3929 10.1678 19.7493 10.1678 16.5C10.1678 13.2507 13.0087 10.6071 16.5006 10.6071C19.9925 10.6071 22.8334 13.2507 22.8334 16.5C22.8334 19.7493 19.9925 22.3929 16.5006 22.3929Z" fill="currentColor"/>
</svg>
