<svg width="100%" height="100%" viewBox="0 0 62 62" fill="currentColor" xmlns="http://www.w3.org/2000/svg">
<path d="M26.8415 0.0766901C12.0403 0.0766901 0 12.117 0 26.9182C0 41.7194 12.0403 53.7597 26.8415 53.7597C31.3662 53.7597 35.8143 52.6861 39.5721 50.6154C39.8731 50.9777 40.2068 51.3114 40.569 51.6124L48.238 59.2814C48.9462 60.0782 49.8097 60.7219 50.7756 61.1729C51.7415 61.6239 52.7894 61.8727 53.8549 61.9041C54.9205 61.9355 55.9812 61.7487 56.9719 61.3553C57.9627 60.9619 58.8626 60.3701 59.6164 59.6164C60.3701 58.8626 60.9619 57.9627 61.3553 56.9719C61.7487 55.9812 61.9355 54.9205 61.9041 53.8549C61.8727 52.7894 61.6239 51.7415 61.1729 50.7756C60.7219 49.8097 60.0782 48.9462 59.2814 48.238L51.6124 40.569C51.2388 40.1953 50.8276 39.8612 50.3854 39.5721C52.456 35.8143 53.7597 31.4429 53.7597 26.8415C53.7597 12.0403 41.7194 0 26.9182 0L26.8415 0.0766901ZM26.8415 7.7457C37.5014 7.7457 46.014 16.2583 46.014 26.9182C46.014 31.9798 44.1735 36.6578 40.9525 40.1089C40.8758 40.1856 40.7991 40.2623 40.7224 40.339C40.3602 40.64 40.0265 40.9737 39.7254 41.3359C36.3511 44.4035 31.7497 46.1674 26.7648 46.1674C16.1049 46.1674 7.59232 37.6548 7.59232 26.9949C7.59232 16.335 16.1049 7.82239 26.7648 7.82239L26.8415 7.7457Z" stroke="currentColor"/>
</svg>
