<svg width="296" height="76" viewBox="0 0 296 76" fill="none" xmlns="http://www.w3.org/2000/svg">
<path d="M265 42.5C265 57.1355 253.136 69 238.5 69C223.864 69 212 57.1355 212 42.5C212 27.8645 223.864 16 238.5 16C253.136 16 265 27.8645 265 42.5Z" fill="#800000"/>
<path d="M245.339 42.4999C245.339 46.2768 242.277 49.3386 238.5 49.3386C234.723 49.3386 231.661 46.2768 231.661 42.4999C231.661 38.723 234.723 35.6612 238.5 35.6612C242.277 35.6612 245.339 38.723 245.339 42.4999Z" fill="white"/>
<path d="M238.5 56.1774C230.945 56.1774 224.823 50.0568 224.823 42.5" stroke="white" stroke-width="2" stroke-miterlimit="10"/>
<path d="M238.5 28.8226C246.055 28.8226 252.177 34.945 252.177 42.5" stroke="white" stroke-width="2" stroke-miterlimit="10"/>
<path d="M238.503 62.1613C227.643 62.1613 218.839 53.3624 218.839 42.5" stroke="white" stroke-width="2" stroke-miterlimit="10"/>
<path d="M238.5 22.8388C249.36 22.8388 258.161 31.6393 258.161 42.5001" stroke="white" stroke-width="2" stroke-miterlimit="10"/>
<path d="M200 42C200 56.3594 188.359 68 174 68C159.641 68 148 56.3594 148 42C148 27.6406 159.641 16 174 16C188.359 16 200 27.6406 200 42Z" fill="#800000"/>
<path d="M180.5 42C180.5 45.5899 177.59 48.5 174 48.5C170.41 48.5 167.5 45.5899 167.5 42C167.5 38.4101 170.41 35.5 174 35.5C177.59 35.5 180.5 38.4101 180.5 42Z" fill="white"/>
<path d="M174 55.4194C166.588 55.4194 160.581 49.4142 160.581 42" stroke="white" stroke-width="2" stroke-miterlimit="10"/>
<path d="M174 28.5807C181.413 28.5807 187.419 34.5875 187.419 42" stroke="white" stroke-width="2" stroke-miterlimit="10"/>
<path d="M174.002 61.2903C163.348 61.2903 154.71 52.6575 154.71 42" stroke="white" stroke-width="2" stroke-miterlimit="10"/>
<path d="M174 22.7097C184.655 22.7097 193.29 31.3442 193.29 42.0001" stroke="white" stroke-width="2" stroke-miterlimit="10"/>
<path d="M289.832 56.632C290.6 56.76 291.368 56.888 292.136 57.016C292.904 57.08 293.64 57.144 294.344 57.208L293.672 66.904C292.072 67.288 290.568 67.576 289.16 67.768C287.816 68.024 286.504 68.152 285.224 68.152C281.96 68.152 279.528 67.448 277.928 66.04C276.328 64.632 275.528 62.424 275.528 59.416V4.6L289.832 3.16V56.632Z" fill="#800000"/>
<path d="M21.024 43.96V67H6.72V7H42.72L40.992 18.808H21.024V33.208H38.88V43.96H21.024ZM61.8653 68.152C56.3613 68.152 52.3613 66.968 49.8653 64.6C47.3693 62.168 46.1213 58.264 46.1213 52.888C46.1213 49.752 46.5053 47.192 47.2733 45.208C48.1053 43.16 49.4813 41.56 51.4013 40.408C53.3213 39.256 56.0093 38.456 59.4653 38.008C62.9853 37.56 67.4333 37.336 72.8093 37.336H77.8013V45.208H66.4733C63.7213 45.208 61.8333 45.56 60.8093 46.264C59.7853 46.904 59.2733 48.152 59.2733 50.008V58.072H67.8173C70.5693 58.072 72.4253 57.752 73.3853 57.112C74.4093 56.472 74.9213 55.256 74.9213 53.464V29.272C73.2573 28.76 70.8253 28.504 67.6252 28.504C64.9373 28.504 62.1213 28.696 59.1773 29.08C56.2973 29.464 53.2573 30.072 50.0573 30.904L48.3293 20.92C50.3133 20.216 52.4573 19.64 54.7613 19.192C57.1293 18.744 59.5613 18.424 62.0573 18.232C64.5533 17.976 67.0173 17.848 69.4493 17.848C74.1853 17.848 77.9933 18.36 80.8733 19.384C83.8173 20.344 85.9293 21.944 87.2093 24.184C88.5533 26.36 89.2253 29.272 89.2253 32.92V67H82.3133L78.6653 62.2C76.2973 64.184 73.7053 65.688 70.8893 66.712C68.1373 67.672 65.1293 68.152 61.8653 68.152ZM121.739 29.848L121.451 29.272H101.867L100.811 19H139.691V26.872L117.035 56.152L117.323 56.728H139.787V67H99.1793V59.128L121.739 29.848Z" fill="#800000"/>
</svg>
